# xmcd CD database file
#
# Track frame offsets:
#	150
#	56477
#	89329
#	121806
#	142808
#	180198
#	208250
#	228477
#	248754
#	270881
#
# Disc length: 3751 seconds
#
# Revision: 1
# Processed by: cddbd v1.4PL0 Copyright (c) Steve Scherf et al.
# Submitted via: CDex 1.50Beta5
#
DISCID=7b0ea50a
DTITLE=New Sounds - Nuova Era 026
DYEAR=1999
DGENRE=New Age
TTITLE0=Reaching the ocean
TTITLE1=Earth-link
TTITLE2=Wings of love
TTITLE3=Autumn suite
TTITLE4=I remember
TTITLE5=Canyon chaconne
TTITLE6=Restoration of the template og humanity
TTITLE7=Faiey wings
TTITLE8=Plane of forgiveness, part II
TTITLE9=End of the game
EXTD=YEAR: 1999
EXTT0=
EXTT1=
EXTT2=
EXTT3=
EXTT4=
EXTT5=
EXTT6=
EXTT7=
EXTT8=
EXTT9=
PLAYORDER=
